# xmcd
#
# Track frame offsets:
#	150
#	10872
#	20190
#	29200
#	37187
#	47387
#	55437
#	62950
#	70797
#	81125
#	87775
#	95100
#
# Disc length: 1426 seconds
#
# Revision: 0
# Processed by: cddbd v1.4PL0 Copyright (c) Steve Scherf et al.
# Submitted via: dBpowerAMP V4.0
#
DISCID=a705900c
DTITLE=Jim Reeves - Disc 2
DYEAR=1900
DGENRE=
TTITLE0=Peace In The Valley
TTITLE1=I'd Like To Be
TTITLE2=Yonder Comes A Sucker
TTITLE3=I Know One
TTITLE4=He'll Have To Go
TTITLE5=Everywhere You Go
TTITLE6=Blue Boy
TTITLE7=The Oklahoma Hills
TTITLE8=Anna Marie
TTITLE9=Have I Told You Lately That I Love You
TTITLE10=I'm Beginning To Forget You
TTITLE11=Mexican Joe
EXTD=
EXTT0=
EXTT1=
EXTT2=
EXTT3=
EXTT4=
EXTT5=
EXTT6=
EXTT7=
EXTT8=
EXTT9=
EXTT10=
EXTT11=
PLAYORDER=
